<svg width="54" height="24" viewBox="0 0 54 24" fill="none" xmlns="http://www.w3.org/2000/svg">
<path d="M4.712 16.08C4.31733 16.08 4.03467 15.9947 3.864 15.824C3.69333 15.6427 3.608 15.3067 3.608 14.816C3.608 14.4853 3.64 14.0853 3.704 13.616C3.768 13.1467 3.88 12.4373 4.04 11.488C4.06133 11.36 4.14667 10.8427 4.296 9.936C4.44533 9.01867 4.57867 8.05867 4.696 7.056C4.80267 6.20267 4.856 5.56267 4.856 5.136C4.856 4.656 4.68 4.416 4.328 4.416C4.06133 4.416 3.72533 4.56 3.32 4.848C2.92533 5.12533 2.49867 5.57333 2.04 6.192C1.89067 6.39467 1.72533 6.496 1.544 6.496C1.39467 6.496 1.26133 6.42667 1.144 6.288C1.03733 6.13867 0.984 5.97333 0.984 5.792C0.984 5.61067 1.016 5.44 1.08 5.28C1.144 5.10933 1.26133 4.90667 1.432 4.672C1.95467 3.95733 2.536 3.408 3.176 3.024C3.816 2.62933 4.488 2.432 5.192 2.432C5.77867 2.432 6.216 2.61333 6.504 2.976C6.80267 3.33867 6.952 3.86667 6.952 4.56C6.952 5.17867 6.86667 6.07467 6.696 7.248C7.22933 5.66933 7.90667 4.47467 8.728 3.664C9.54933 2.84267 10.5147 2.432 11.624 2.432C12.4987 2.432 13.1547 2.68267 13.592 3.184C14.04 3.67467 14.264 4.336 14.264 5.168C14.264 5.63733 14.1947 6.208 14.056 6.88L13.08 11.456C12.9733 11.9893 12.92 12.448 12.92 12.832C12.92 13.28 13.0213 13.616 13.224 13.84C13.4373 14.064 13.7307 14.176 14.104 14.176C14.456 14.176 14.7973 14.0587 15.128 13.824C15.4693 13.5893 15.8693 13.2 16.328 12.656C16.456 12.5067 16.6 12.432 16.76 12.432C16.8987 12.432 17.0053 12.496 17.08 12.624C17.1653 12.752 17.208 12.928 17.208 13.152C17.208 13.568 17.1067 13.8987 16.904 14.144C16.3493 14.816 15.8 15.3067 15.256 15.616C14.712 15.9253 14.1413 16.08 13.544 16.08C12.6373 16.08 11.928 15.8133 11.416 15.28C10.904 14.736 10.648 14.0107 10.648 13.104C10.648 12.752 10.6747 12.368 10.728 11.952C10.792 11.536 10.8933 11.008 11.032 10.368L11.672 7.44C11.6933 7.344 11.7307 7.17333 11.784 6.928C11.8373 6.68267 11.88 6.45333 11.912 6.24C11.944 6.016 11.96 5.79733 11.96 5.584C11.96 5.24267 11.864 4.97067 11.672 4.768C11.48 4.56533 11.208 4.464 10.856 4.464C10.216 4.464 9.576 4.80533 8.936 5.488C8.296 6.17067 7.704 7.27467 7.16 8.8C6.616 10.3147 6.18933 12.256 5.88 14.624C5.80533 15.168 5.69333 15.5467 5.544 15.76C5.40533 15.9733 5.128 16.08 4.712 16.08ZM29.3326 2.736C29.6313 2.77867 29.834 2.86933 29.9406 3.008C30.058 3.14667 30.1166 3.328 30.1166 3.552C30.1166 4.288 29.722 4.62933 28.9326 4.576L28.3726 4.528C27.7433 4.47467 27.114 4.432 26.4846 4.4C25.866 4.368 25.2153 4.352 24.5326 4.352H23.8126C23.6846 5.93067 23.5513 7.37067 23.4126 8.672L26.1646 8.624C26.5593 8.624 26.8206 8.69333 26.9486 8.832C27.0873 8.97067 27.1566 9.15733 27.1566 9.392C27.1566 9.75467 27.05 10.0427 26.8366 10.256C26.6233 10.4587 26.3193 10.56 25.9246 10.56H23.1886L23.0926 11.248C22.8686 13.008 22.3886 14.2613 21.6526 15.008C20.9273 15.7547 19.9246 16.128 18.6446 16.128C17.9193 16.128 17.2526 15.9733 16.6446 15.664C16.0366 15.344 15.5886 14.96 15.3006 14.512C15.1833 14.3307 15.1246 14.112 15.1246 13.856C15.1246 13.6 15.1833 13.376 15.3006 13.184C15.4286 12.992 15.5833 12.896 15.7646 12.896C15.8926 12.896 16.0153 12.9387 16.1326 13.024C16.2606 13.1093 16.4206 13.2747 16.6126 13.52C17.1246 14.192 17.7593 14.528 18.5166 14.528C19.1246 14.528 19.6313 14.2827 20.0366 13.792C20.4526 13.2907 20.7193 12.5067 20.8366 11.44L20.9326 10.56H20.1646C19.9193 10.56 19.706 10.4907 19.5246 10.352C19.354 10.2133 19.2686 10.016 19.2686 9.76C19.2686 9.42933 19.354 9.17867 19.5246 9.008C19.6953 8.82667 19.946 8.736 20.2766 8.736C20.5753 8.736 20.8686 8.73067 21.1566 8.72C21.2846 7.54667 21.4233 6.12267 21.5726 4.448C20.4206 4.55467 19.61 4.74133 19.1406 5.008C18.6713 5.27467 18.4366 5.66933 18.4366 6.192C18.4366 6.55467 18.5433 6.90133 18.7566 7.232C18.8206 7.328 18.8526 7.424 18.8526 7.52C18.8526 7.712 18.746 7.88267 18.5326 8.032C18.3193 8.17067 18.0793 8.24 17.8126 8.24C17.5246 8.24 17.2793 8.15467 17.0766 7.984C16.9486 7.87733 16.826 7.65867 16.7086 7.328C16.5913 6.99733 16.5326 6.62933 16.5326 6.224C16.5326 4.90133 17.21 3.94133 18.5646 3.344C19.93 2.74667 21.9193 2.448 24.5326 2.448C26.346 2.448 27.946 2.544 29.3326 2.736ZM39.9873 2.72C40.3179 2.784 40.5633 2.896 40.7233 3.056C40.8939 3.216 40.9793 3.40267 40.9793 3.616C40.9793 3.968 40.8779 4.224 40.6753 4.384C40.4833 4.544 40.1739 4.608 39.7473 4.576C38.7873 4.50133 38.0353 4.45333 37.4913 4.432C36.9579 4.4 36.2539 4.37867 35.3793 4.368C34.9846 6.33067 34.6219 8.304 34.2913 10.288C34.1739 11.0133 34.0513 11.856 33.9233 12.816C33.7953 13.7653 33.7099 14.5333 33.6673 15.12C33.6459 15.4293 33.5179 15.6693 33.2833 15.84C33.0486 16 32.7659 16.08 32.4353 16.08C32.0833 16.08 31.8113 15.9947 31.6193 15.824C31.4273 15.6533 31.3313 15.4293 31.3313 15.152C31.3313 14.896 31.3686 14.4747 31.4433 13.888C31.5286 13.2907 31.6246 12.6667 31.7313 12.016C31.8486 11.3653 31.9393 10.8 32.0033 10.32C32.1206 9.50933 32.2539 8.704 32.4033 7.904C32.5526 7.104 32.7019 6.34667 32.8513 5.632C32.8833 5.472 32.9206 5.29067 32.9633 5.088C33.0059 4.87467 33.0539 4.64 33.1073 4.384C32.0619 4.416 31.2406 4.50133 30.6432 4.64C30.0459 4.77867 29.6193 4.976 29.3633 5.232C29.1179 5.47733 28.9953 5.79733 28.9953 6.192C28.9953 6.55467 29.1019 6.90133 29.3153 7.232C29.3579 7.30667 29.3793 7.38667 29.3793 7.472C29.3793 7.67467 29.2566 7.86667 29.0113 8.048C28.7766 8.21867 28.5313 8.304 28.2753 8.304C28.0939 8.304 27.9446 8.25067 27.8273 8.144C27.6139 7.96267 27.4379 7.70667 27.2993 7.376C27.1606 7.03467 27.0913 6.65067 27.0913 6.224C27.0913 5.31733 27.3846 4.592 27.9713 4.048C28.5686 3.49333 29.4699 3.088 30.6753 2.832C31.8913 2.576 33.4486 2.448 35.3472 2.448C36.5206 2.448 37.4539 2.46933 38.1473 2.512C38.8513 2.55467 39.4646 2.624 39.9873 2.72ZM40.0671 7.488C39.6191 7.488 39.2831 7.38667 39.0591 7.184C38.8351 6.97067 38.7231 6.67733 38.7231 6.304C38.7231 5.93067 38.8671 5.62133 39.1551 5.376C39.4538 5.12 39.8218 4.992 40.2591 4.992C40.6538 4.992 40.9738 5.088 41.2191 5.28C41.4645 5.472 41.5871 5.744 41.5871 6.096C41.5871 6.52267 41.4485 6.864 41.1711 7.12C40.8938 7.36533 40.5258 7.488 40.0671 7.488ZM39.9391 16.08C39.2458 16.08 38.7391 15.8347 38.4191 15.344C38.1098 14.8533 37.9551 14.2027 37.9551 13.392C37.9551 12.912 38.0138 12.2987 38.1311 11.552C38.2591 10.7947 38.4191 10.0907 38.6111 9.44C38.7071 9.09867 38.8351 8.864 38.9951 8.736C39.1551 8.608 39.4111 8.544 39.7631 8.544C40.3071 8.544 40.5791 8.72533 40.5791 9.088C40.5791 9.35467 40.4778 9.97333 40.2751 10.944C40.0191 12.1173 39.8911 12.912 39.8911 13.328C39.8911 13.648 39.9338 13.8933 40.0191 14.064C40.1045 14.2347 40.2485 14.32 40.4511 14.32C40.6431 14.32 40.8831 14.1867 41.1711 13.92C41.4591 13.6533 41.8431 13.232 42.3231 12.656C42.4511 12.5067 42.5951 12.432 42.7551 12.432C42.8938 12.432 43.0005 12.496 43.0751 12.624C43.1605 12.752 43.2031 12.928 43.2031 13.152C43.2031 13.5787 43.1018 13.9093 42.8991 14.144C41.8431 15.4347 40.8565 16.08 39.9391 16.08ZM48.1364 11.52C48.435 11.52 48.5844 11.744 48.5844 12.192C48.5844 13.0347 47.923 13.456 46.6004 13.456C46.3444 13.456 45.9764 13.408 45.4964 13.312C45.635 13.9733 45.747 14.7093 45.8324 15.52C45.9284 16.32 45.9764 16.9813 45.9764 17.504C45.9764 18.656 45.7897 19.536 45.4164 20.144C45.043 20.752 44.5524 21.056 43.9444 21.056C43.1764 21.056 42.627 20.512 42.2964 19.424C41.9764 18.336 41.8164 16.6933 41.8164 14.496C41.8164 12.448 42.035 10.3733 42.4724 8.272C42.9204 6.16 43.5284 4.416 44.2964 3.04C45.075 1.65333 45.9284 0.959999 46.8564 0.959999C47.3577 0.959999 47.747 1.184 48.0244 1.632C48.3124 2.08 48.4564 2.68267 48.4564 3.44C48.4564 5.94667 46.9577 8.67733 43.9604 11.632C43.8537 12.6773 43.8004 13.5947 43.8004 14.384C43.8004 15.4827 43.8377 16.608 43.9124 17.76C43.987 18.9227 44.1097 19.504 44.2804 19.504C44.6004 19.504 44.7604 18.9493 44.7604 17.84C44.7604 17.008 44.7017 16.2027 44.5844 15.424C44.4777 14.6453 44.3284 13.824 44.1364 12.96C44.1257 12.8213 44.1684 12.6453 44.2644 12.432C44.371 12.2187 44.499 12.032 44.6484 11.872C44.7977 11.712 44.931 11.632 45.0484 11.632C45.2617 11.632 45.5177 11.6427 45.8164 11.664C45.9124 11.6747 46.0244 11.68 46.1524 11.68C46.579 11.68 47.0537 11.6427 47.5764 11.568C47.6617 11.5573 47.7524 11.5467 47.8484 11.536C47.9444 11.5253 48.0404 11.52 48.1364 11.52ZM46.5204 2.544C46.3284 2.544 46.0884 2.86933 45.8004 3.52C45.523 4.17067 45.2457 5.03467 44.9684 6.112C44.691 7.17867 44.451 8.30933 44.2484 9.504C45.1017 8.53333 45.7577 7.52533 46.2164 6.48C46.675 5.424 46.9097 4.43733 46.9204 3.52C46.9204 2.86933 46.787 2.544 46.5204 2.544ZM52.9774 8.544C53.2227 8.544 53.3934 8.576 53.4894 8.64C53.5854 8.704 53.6334 8.81067 53.6334 8.96C53.6334 9.216 53.4947 10.128 53.2174 11.696C52.972 13.2 52.828 14.0907 52.7854 14.368C52.3907 17.1093 51.8467 19.28 51.1534 20.88C50.46 22.48 49.5374 23.28 48.3854 23.28C47.8414 23.28 47.3987 23.1093 47.0574 22.768C46.716 22.4373 46.5454 22 46.5454 21.456C46.5454 20.9547 46.6574 20.4427 46.8814 19.92C47.116 19.3973 47.5427 18.7947 48.1614 18.112C48.7907 17.44 49.676 16.6667 50.8174 15.792L50.8654 15.424C50.94 15.0293 51.0254 14.464 51.1214 13.728C50.908 14.496 50.6094 15.0827 50.2254 15.488C49.8414 15.8827 49.436 16.08 49.0094 16.08C48.5294 16.08 48.1347 15.8613 47.8254 15.424C47.5267 14.976 47.3774 14.4213 47.3774 13.76C47.3774 12.96 47.4307 12.2293 47.5374 11.568C47.644 10.896 47.82 10.1867 48.0654 9.44C48.172 9.12 48.3214 8.89067 48.5134 8.752C48.7054 8.61333 49.0094 8.544 49.4254 8.544C49.66 8.544 49.82 8.58133 49.9054 8.656C50.0014 8.73067 50.0494 8.84267 50.0494 8.992C50.0494 9.07733 49.9907 9.36533 49.8734 9.856C49.7667 10.2507 49.6814 10.608 49.6174 10.928C49.532 11.3653 49.4574 11.7867 49.3934 12.192C49.3294 12.5867 49.2974 12.912 49.2974 13.168C49.2974 13.5733 49.4094 13.776 49.6334 13.776C49.7934 13.776 49.9907 13.616 50.2254 13.296C50.4707 12.976 50.7267 12.4907 50.9934 11.84C51.2707 11.1893 51.5374 10.3893 51.7934 9.44C51.8787 9.12 52.0067 8.89067 52.1774 8.752C52.3587 8.61333 52.6254 8.544 52.9774 8.544ZM48.5614 21.728C48.828 21.728 49.1267 21.4187 49.4574 20.8C49.788 20.1813 50.1187 19.152 50.4494 17.712C49.628 18.4053 49.0307 19.0347 48.6574 19.6C48.2947 20.176 48.1134 20.6773 48.1134 21.104C48.1134 21.2853 48.1454 21.4347 48.2094 21.552C48.284 21.6693 48.4014 21.728 48.5614 21.728Z" fill="white"/>
</svg>
